<svg width="500" height="500" viewBox="0 0 500 500" xmlns="http://www.w3.org/2000/svg">
<defs>
  <linearGradient id="gold1" x1="0" y1="0" x2="0" y2="1">
    <stop offset="0%" stop-color="#F5D78E"/>
    <stop offset="40%" stop-color="#C9A84C"/>
    <stop offset="70%" stop-color="#A07830"/>
    <stop offset="100%" stop-color="#C9A84C"/>
  </linearGradient>
  <linearGradient id="gold2" x1="0" y1="0" x2="0" y2="1">
    <stop offset="0%" stop-color="#E8C96A"/>
    <stop offset="50%" stop-color="#B8902A"/>
    <stop offset="100%" stop-color="#D4A843"/>
  </linearGradient>
  <linearGradient id="gold3" x1="0" y1="0" x2="1" y2="1">
    <stop offset="0%" stop-color="#F0D080"/>
    <stop offset="50%" stop-color="#C9A84C"/>
    <stop offset="100%" stop-color="#8B6914"/>
  </linearGradient>
  <linearGradient id="arcGrad" x1="0" y1="0" x2="0" y2="1">
    <stop offset="0%" stop-color="#E8C96A"/>
    <stop offset="100%" stop-color="#9A7020"/>
  </linearGradient>
  <linearGradient id="textGrad" x1="0" y1="0" x2="0" y2="1">
    <stop offset="0%" stop-color="#F5E090"/>
    <stop offset="50%" stop-color="#C9A84C"/>
    <stop offset="100%" stop-color="#8B6510"/>
  </linearGradient>
  <linearGradient id="bannerGrad" x1="0" y1="0" x2="0" y2="1">
    <stop offset="0%" stop-color="#E0BC5A"/>
    <stop offset="100%" stop-color="#A07828"/>
  </linearGradient>
  <filter id="shadow">
    <feDropShadow dx="0" dy="2" stdDeviation="3" flood-color="#000" flood-opacity="0.4"/>
  </filter>
</defs>
<circle cx="250" cy="240" r="205" fill="none" stroke="url(#arcGrad)" stroke-width="8" opacity="0.6"/>
<circle cx="250" cy="240" r="195" fill="none" stroke="url(#gold1)" stroke-width="3" opacity="0.8"/>
<path d="M 70,240 A180,180 0 0,1 430,240" fill="#2A1E08"/>
<path d="M 60,240 A190,190 0 0,1 440,240" fill="none" stroke="url(#gold1)" stroke-width="5"/>
<path d="M 90,240 A160,160 0 0,1 410,240" fill="none" stroke="url(#gold2)" stroke-width="3"/>
<path id="arcText" d="M 85,240 A165,165 0 0,1 415,240" fill="none"/>
<text font-family="Georgia,serif" font-size="22" font-weight="700" fill="url(#textGrad)" letter-spacing="3">
  <textPath href="#arcText" startOffset="8%">PAK NIKAH POINT</textPath>
</text>
<rect x="78" y="200" width="22" height="120" rx="4" fill="url(#gold2)" opacity="0.8"/>
<rect x="72" y="195" width="34" height="10" rx="3" fill="url(#gold1)"/>
<rect x="72" y="310" width="34" height="10" rx="3" fill="url(#gold1)"/>
<rect x="400" y="200" width="22" height="120" rx="4" fill="url(#gold2)" opacity="0.8"/>
<rect x="394" y="195" width="34" height="10" rx="3" fill="url(#gold1)"/>
<rect x="394" y="310" width="34" height="10" rx="3" fill="url(#gold1)"/>
<circle cx="250" cy="230" r="140" fill="#1A1005" opacity="0.95"/>
<circle cx="250" cy="230" r="135" fill="none" stroke="url(#gold2)" stroke-width="2" opacity="0.7"/>
<circle cx="250" cy="230" r="120" fill="none" stroke="url(#gold1)" stroke-width="1" opacity="0.4"/>
<text x="148" y="268" font-family="Georgia,serif" font-size="95" font-weight="900" fill="url(#textGrad)" filter="url(#shadow)">P</text>
<text x="215" y="268" font-family="Georgia,serif" font-size="75" font-weight="700" fill="url(#gold3)" filter="url(#shadow)">n</text>
<text x="270" y="268" font-family="Georgia,serif" font-size="95" font-weight="900" fill="url(#textGrad)" filter="url(#shadow)">P</text>
<polygon points="60,350 110,335 110,375 60,390" fill="url(#bannerGrad)" opacity="0.9"/>
<polygon points="60,350 75,360 60,390" fill="#7A5A10" opacity="0.6"/>
<polygon points="440,350 390,335 390,375 440,390" fill="url(#bannerGrad)" opacity="0.9"/>
<polygon points="440,350 425,360 440,390" fill="#7A5A10" opacity="0.6"/>
<rect x="105" y="330" width="290" height="50" rx="6" fill="url(#bannerGrad)"/>
<rect x="108" y="333" width="284" height="44" rx="5" fill="none" stroke="#F0D070" stroke-width="1" opacity="0.5"/>
<text x="250" y="362" text-anchor="middle" font-family="Georgia,serif" font-size="16" font-weight="700" fill="#1A0E02" letter-spacing="2">MATRIMONIAL SERVICES</text>
<rect x="140" y="388" width="220" height="30" rx="5" fill="#1A0E02" stroke="url(#gold2)" stroke-width="1.5"/>
<text x="250" y="408" text-anchor="middle" font-family="Georgia,serif" font-size="14" font-weight="600" fill="url(#gold1)" letter-spacing="1">03217600102</text>
<polygon points="250,42 256,58 272,58 260,68 265,84 250,74 235,84 240,68 228,58 244,58" fill="url(#gold1)" opacity="0.8"/>
</svg>
